<mxfile host="65bd71144e">
    <diagram id="6K2aCtGG5v6xstUJsYja" name="Page-1">
        <mxGraphModel dx="606" dy="491" grid="1" gridSize="10" guides="1" tooltips="1" connect="1" arrows="1" fold="1" page="1" pageScale="1" pageWidth="827" pageHeight="1169" math="0" shadow="0">
            <root>
                <mxCell id="0"/>
                <mxCell id="1" parent="0"/>
                <mxCell id="42" style="edgeStyle=none;html=1;exitX=0;exitY=0.25;exitDx=0;exitDy=0;exitPerimeter=0;endArrow=none;endFill=0;rounded=0;" parent="1" edge="1" source="77">
                    <mxGeometry relative="1" as="geometry">
                        <mxPoint x="510" y="120" as="targetPoint"/>
                        <mxPoint x="565" y="188" as="sourcePoint"/>
                        <Array as="points">
                            <mxPoint x="565" y="120"/>
                        </Array>
                    </mxGeometry>
                </mxCell>
                <mxCell id="43" style="edgeStyle=none;shape=connector;rounded=0;html=1;exitX=1;exitY=0.5;exitDx=0;exitDy=0;exitPerimeter=0;entryX=0;entryY=0.57;entryDx=0;entryDy=0;entryPerimeter=0;labelBackgroundColor=default;strokeColor=default;fontFamily=Helvetica;fontSize=11;fontColor=default;endArrow=none;endFill=0;" parent="1" source="77" target="4" edge="1">
                    <mxGeometry relative="1" as="geometry">
                        <mxPoint x="550" y="383" as="sourcePoint"/>
                        <Array as="points">
                            <mxPoint x="550" y="393"/>
                        </Array>
                    </mxGeometry>
                </mxCell>
                <mxCell id="3" value="" style="pointerEvents=1;verticalLabelPosition=bottom;shadow=0;dashed=0;align=center;html=1;verticalAlign=top;shape=mxgraph.electrical.miscellaneous.batteryStack;rotation=-90;" parent="1" vertex="1">
                    <mxGeometry x="178" y="313" width="100" height="60" as="geometry"/>
                </mxCell>
                <mxCell id="7" style="edgeStyle=none;shape=connector;rounded=0;html=1;exitX=1;exitY=0.57;exitDx=0;exitDy=0;exitPerimeter=0;entryX=0;entryY=0.5;entryDx=0;entryDy=0;labelBackgroundColor=default;strokeColor=default;fontFamily=Helvetica;fontSize=11;fontColor=default;endArrow=none;endFill=0;startArrow=none;" parent="1" source="16" target="3" edge="1">
                    <mxGeometry relative="1" as="geometry"/>
                </mxCell>
                <mxCell id="69" style="edgeStyle=none;rounded=0;html=1;exitX=1;exitY=0.57;exitDx=0;exitDy=0;exitPerimeter=0;entryX=1;entryY=0.5;entryDx=0;entryDy=0;entryPerimeter=0;endArrow=none;endFill=0;" parent="1" source="4" target="68" edge="1">
                    <mxGeometry relative="1" as="geometry"/>
                </mxCell>
                <mxCell id="4" value="" style="verticalLabelPosition=bottom;shadow=0;dashed=0;align=center;html=1;verticalAlign=top;shape=mxgraph.electrical.opto_electronics.led_2;pointerEvents=1;rotation=-180;" parent="1" vertex="1">
                    <mxGeometry x="420" y="363" width="100" height="70" as="geometry"/>
                </mxCell>
                <mxCell id="8" value="&lt;div style=&quot;text-align: left;&quot;&gt;&lt;span style=&quot;background-color: initial;&quot;&gt;TEJ3M Unit#4-16&lt;/span&gt;&lt;/div&gt;&lt;div style=&quot;text-align: left;&quot;&gt;&lt;span style=&quot;background-color: initial;&quot;&gt;Alex James&lt;/span&gt;&lt;/div&gt;&lt;div style=&quot;text-align: left;&quot;&gt;Dec. 2023&lt;/div&gt;&lt;div style=&quot;text-align: left;&quot;&gt;XOR Gate with a chip&lt;/div&gt;" style="text;html=1;align=center;verticalAlign=middle;resizable=0;points=[];autosize=1;strokeColor=none;fillColor=none;fontSize=11;fontFamily=Helvetica;fontColor=default;" parent="1" vertex="1">
                    <mxGeometry x="70" y="80" width="130" height="70" as="geometry"/>
                </mxCell>
                <mxCell id="10" value="+5 V" style="text;html=1;align=center;verticalAlign=middle;resizable=0;points=[];autosize=1;strokeColor=none;fillColor=none;fontSize=11;fontFamily=Helvetica;fontColor=default;" parent="1" vertex="1">
                    <mxGeometry x="155" y="328" width="50" height="30" as="geometry"/>
                </mxCell>
                <mxCell id="11" value="LED" style="text;html=1;align=center;verticalAlign=middle;resizable=0;points=[];autosize=1;strokeColor=none;fillColor=none;fontSize=11;fontFamily=Helvetica;fontColor=default;" parent="1" vertex="1">
                    <mxGeometry x="450" y="328" width="40" height="30" as="geometry"/>
                </mxCell>
                <mxCell id="16" value="" style="ellipse;whiteSpace=wrap;html=1;aspect=fixed;strokeColor=#030303;fillColor=#000000;" parent="1" vertex="1">
                    <mxGeometry x="287" y="388" width="10" height="10" as="geometry"/>
                </mxCell>
                <mxCell id="20" value="A | B | Output&lt;br&gt;-------------&lt;br&gt;0 | 0 | 0&lt;br&gt;0 | 1 | 1&lt;br&gt;1 | 0 | 1&lt;br&gt;1 | 1 | 0" style="text;html=1;align=left;verticalAlign=middle;resizable=0;points=[];autosize=1;strokeColor=none;fillColor=none;" parent="1" vertex="1">
                    <mxGeometry x="125" y="174" width="90" height="100" as="geometry"/>
                </mxCell>
                <mxCell id="22" value="A" style="text;html=1;align=center;verticalAlign=middle;resizable=0;points=[];autosize=1;strokeColor=none;fillColor=none;" parent="1" vertex="1">
                    <mxGeometry x="261.85" y="190" width="30" height="30" as="geometry"/>
                </mxCell>
                <mxCell id="23" value="Output" style="text;html=1;align=center;verticalAlign=middle;resizable=0;points=[];autosize=1;strokeColor=none;fillColor=none;" parent="1" vertex="1">
                    <mxGeometry x="450" y="430" width="60" height="30" as="geometry"/>
                </mxCell>
                <mxCell id="40" style="edgeStyle=none;shape=connector;rounded=0;html=1;entryX=0.5;entryY=0;entryDx=0;entryDy=0;labelBackgroundColor=default;strokeColor=default;fontFamily=Helvetica;fontSize=11;fontColor=default;endArrow=none;endFill=0;exitX=0.996;exitY=0.124;exitDx=0;exitDy=0;exitPerimeter=0;" parent="1" source="38" target="16" edge="1">
                    <mxGeometry relative="1" as="geometry">
                        <mxPoint x="247" y="240" as="sourcePoint"/>
                        <Array as="points">
                            <mxPoint x="248" y="290"/>
                            <mxPoint x="292" y="290"/>
                        </Array>
                    </mxGeometry>
                </mxCell>
                <mxCell id="38" value="" style="shape=mxgraph.electrical.electro-mechanical.twoWaySwitch;aspect=fixed;elSwitchState=2;rotation=0;flipV=1;flipH=1;" parent="1" vertex="1">
                    <mxGeometry x="248.15" y="221" width="57.7" height="20" as="geometry"/>
                </mxCell>
                <mxCell id="51" value="" style="shape=mxgraph.electrical.electro-mechanical.twoWaySwitch;aspect=fixed;elSwitchState=2;rotation=0;flipV=1;flipH=1;" parent="1" vertex="1">
                    <mxGeometry x="248" y="112" width="57.7" height="20" as="geometry"/>
                </mxCell>
                <mxCell id="53" value="" style="edgeStyle=none;rounded=0;html=1;endArrow=none;endFill=0;startArrow=none;entryX=0.5;entryY=1;entryDx=0;entryDy=0;" parent="1" edge="1">
                    <mxGeometry relative="1" as="geometry">
                        <Array as="points"/>
                        <mxPoint x="228" y="295" as="sourcePoint"/>
                        <mxPoint x="228" y="114" as="targetPoint"/>
                    </mxGeometry>
                </mxCell>
                <mxCell id="55" value="B" style="text;html=1;align=center;verticalAlign=middle;resizable=0;points=[];autosize=1;strokeColor=none;fillColor=none;" parent="1" vertex="1">
                    <mxGeometry x="261.85" y="82" width="30" height="30" as="geometry"/>
                </mxCell>
                <mxCell id="61" style="edgeStyle=none;html=1;entryX=0.07;entryY=0.523;entryDx=0;entryDy=0;entryPerimeter=0;rounded=0;endArrow=none;endFill=0;" parent="1" target="51" edge="1">
                    <mxGeometry relative="1" as="geometry">
                        <mxPoint x="320.0000000000001" y="150" as="targetPoint"/>
                        <mxPoint x="510" y="120" as="sourcePoint"/>
                        <Array as="points">
                            <mxPoint x="480" y="120"/>
                        </Array>
                    </mxGeometry>
                </mxCell>
                <mxCell id="72" style="edgeStyle=orthogonalEdgeStyle;html=1;exitX=1;exitY=0.5;exitDx=0;exitDy=0;entryX=1.012;entryY=0.164;entryDx=0;entryDy=0;entryPerimeter=0;endArrow=none;endFill=0;rounded=0;" parent="1" source="60" target="51" edge="1">
                    <mxGeometry relative="1" as="geometry">
                        <Array as="points">
                            <mxPoint x="330" y="343"/>
                            <mxPoint x="330" y="160"/>
                            <mxPoint x="247" y="160"/>
                        </Array>
                    </mxGeometry>
                </mxCell>
                <mxCell id="60" value="" style="ellipse;whiteSpace=wrap;html=1;aspect=fixed;strokeColor=#030303;fillColor=#000000;" parent="1" vertex="1">
                    <mxGeometry x="287" y="338" width="10" height="10" as="geometry"/>
                </mxCell>
                <mxCell id="67" style="edgeStyle=none;rounded=0;html=1;exitX=1;exitY=0.5;exitDx=0;exitDy=0;entryX=0.967;entryY=0.872;entryDx=0;entryDy=0;entryPerimeter=0;endArrow=none;endFill=0;" parent="1" source="27" target="38" edge="1">
                    <mxGeometry relative="1" as="geometry"/>
                </mxCell>
                <mxCell id="27" value="" style="ellipse;whiteSpace=wrap;html=1;aspect=fixed;strokeColor=#030303;fillColor=#000000;" parent="1" vertex="1">
                    <mxGeometry x="223" y="219" width="10" height="10" as="geometry"/>
                </mxCell>
                <mxCell id="64" value="" style="edgeStyle=none;orthogonalLoop=1;jettySize=auto;html=1;rounded=0;endArrow=none;endFill=0;entryX=0.886;entryY=0.877;entryDx=0;entryDy=0;entryPerimeter=0;" parent="1" target="51" edge="1">
                    <mxGeometry width="100" relative="1" as="geometry">
                        <mxPoint x="227" y="114" as="sourcePoint"/>
                        <mxPoint x="256.84639999999996" y="114.38" as="targetPoint"/>
                        <Array as="points"/>
                    </mxGeometry>
                </mxCell>
                <mxCell id="66" value="" style="edgeStyle=none;orthogonalLoop=1;jettySize=auto;html=1;rounded=0;endArrow=none;endFill=0;entryX=0;entryY=0.75;entryDx=0;entryDy=0;entryPerimeter=0;exitX=0.028;exitY=0.489;exitDx=0;exitDy=0;exitPerimeter=0;" parent="1" edge="1">
                    <mxGeometry width="100" relative="1" as="geometry">
                        <mxPoint x="304.23440000000005" y="231.22000000000003" as="sourcePoint"/>
                        <mxPoint x="480" y="189" as="targetPoint"/>
                        <Array as="points">
                            <mxPoint x="370" y="232"/>
                            <mxPoint x="370" y="190"/>
                        </Array>
                    </mxGeometry>
                </mxCell>
                <mxCell id="70" style="edgeStyle=none;rounded=0;html=1;exitX=0;exitY=0.5;exitDx=0;exitDy=0;exitPerimeter=0;entryX=1;entryY=0.5;entryDx=0;entryDy=0;endArrow=none;endFill=0;" parent="1" source="68" target="16" edge="1">
                    <mxGeometry relative="1" as="geometry"/>
                </mxCell>
                <mxCell id="68" value="" style="pointerEvents=1;verticalLabelPosition=bottom;shadow=0;dashed=0;align=center;html=1;verticalAlign=top;shape=mxgraph.electrical.resistors.resistor_2;" parent="1" vertex="1">
                    <mxGeometry x="313" y="383" width="100" height="20" as="geometry"/>
                </mxCell>
                <mxCell id="71" value="220&amp;nbsp;Ω" style="text;html=1;align=center;verticalAlign=middle;resizable=0;points=[];autosize=1;strokeColor=none;fillColor=none;" parent="1" vertex="1">
                    <mxGeometry x="338" y="351" width="60" height="30" as="geometry"/>
                </mxCell>
                <mxCell id="74" style="edgeStyle=none;html=1;exitX=0;exitY=0.75;exitDx=0;exitDy=0;exitPerimeter=0;rounded=0;endArrow=none;endFill=0;" parent="1" edge="1" source="77">
                    <mxGeometry relative="1" as="geometry">
                        <mxPoint x="480" y="189" as="targetPoint"/>
                        <mxPoint x="535" y="189" as="sourcePoint"/>
                        <Array as="points">
                            <mxPoint x="535" y="189"/>
                        </Array>
                    </mxGeometry>
                </mxCell>
                <mxCell id="77" value="" style="verticalLabelPosition=bottom;shadow=0;dashed=0;align=center;html=1;verticalAlign=top;shape=mxgraph.electrical.logic_gates.logic_gate;operation=xor;rotation=90;" vertex="1" parent="1">
                    <mxGeometry x="500" y="268" width="100" height="60" as="geometry"/>
                </mxCell>
            </root>
        </mxGraphModel>
    </diagram>
</mxfile>